<svg xmlns="http://www.w3.org/2000/svg" viewBox="0 0 320 320" role="img" aria-labelledby="title desc">
  <title id="title">Logo Agen Masduki NoeSantara Kebumen</title>
  <desc id="desc">Monogram huruf M dengan elemen daun dan lingkar resmi berwarna hijau emas.</desc>
  <defs>
    <linearGradient id="bg" x1="0" x2="1" y1="0" y2="1">
      <stop offset="0%" stop-color="#1f5a3b"/>
      <stop offset="100%" stop-color="#143927"/>
    </linearGradient>
    <linearGradient id="gold" x1="0" x2="1" y1="0" y2="1">
      <stop offset="0%" stop-color="#ecd8a6"/>
      <stop offset="100%" stop-color="#d7b46a"/>
    </linearGradient>
  </defs>
  <rect x="20" y="20" width="280" height="280" rx="72" fill="url(#bg)"/>
  <rect x="36" y="36" width="248" height="248" rx="56" fill="none" stroke="rgba(255,253,248,0.18)" stroke-width="2"/>
  <circle cx="160" cy="160" r="92" fill="none" stroke="url(#gold)" stroke-width="8"/>
  <path d="M92 220V104h20l48 56 48-56h20v116h-24v-74l-37 43h-14l-37-43v74z" fill="#fffdf8"/>
  <path d="M193 93c16-16 42-17 59-2-3 22-19 43-44 49-9 2-18 2-26 0 1-20 4-33 11-47z" fill="url(#gold)"/>
  <path d="M192 127c10-5 21-12 31-24" fill="none" stroke="#143927" stroke-width="4" stroke-linecap="round"/>
  <text x="160" y="256" text-anchor="middle" font-family="Inter, Arial, sans-serif" font-size="20" font-weight="700" letter-spacing="2.8" fill="#ecd8a6">MASDUKI</text>
</svg>
